<svg xmlns="http://www.w3.org/2000/svg" width="1872" height="602.303" viewBox="0 0 1872 602.303">
  <g id="footer-bubbles" transform="translate(-35 -3824.697)">
    <circle id="Ellipse_47" data-name="Ellipse 47" cx="77" cy="77" r="77" transform="matrix(-0.017, -1, 1, -0.017, 37.688, 4077.833)" fill="#88ff80"/>
    <circle id="Ellipse_43" data-name="Ellipse 43" cx="77" cy="77" r="77" transform="matrix(-0.017, -1, 1, -0.017, 1458.419, 3981.361)" fill="#fff"/>
    <circle id="Ellipse_50" data-name="Ellipse 50" cx="77" cy="77" r="77" transform="matrix(-0.017, -1, 1, -0.017, 387.34, 4372.88)" fill="#fff"/>
    <path id="Path_3" data-name="Path 3" d="M77,0A77,77,0,1,1,0,77,77,77,0,0,1,77,0Z" transform="matrix(-0.017, -1, 1, -0.017, 37.88, 4088.831)" fill="#70f3cb"/>
    <circle id="Ellipse_44" data-name="Ellipse 44" cx="77" cy="77" r="77" transform="matrix(-0.017, -1, 1, -0.017, 1458.523, 3987.36)" fill="#070707"/>
    <circle id="Ellipse_51" data-name="Ellipse 51" cx="77" cy="77" r="77" transform="matrix(-0.017, -1, 1, -0.017, 387.445, 4378.879)" fill="#070707"/>
    <circle id="Ellipse_45" data-name="Ellipse 45" cx="63" cy="63" r="63" transform="translate(1564 4301)" fill="rgba(4,4,4,0.55)"/>
    <circle id="Ellipse_52" data-name="Ellipse 52" cx="63" cy="63" r="63" transform="translate(1781 4089)" fill="rgba(4,4,4,0.55)"/>
    <circle id="Ellipse_54" data-name="Ellipse 54" cx="42.5" cy="42.5" r="42.5" transform="matrix(-0.017, -1, 1, -0.017, 50.865, 4030.596)" fill="#f3f9f2"/>
  </g>
</svg>
