<svg xmlns="http://www.w3.org/2000/svg" width="583" height="818" viewBox="0 0 583 818">
  <g id="hero-image" transform="translate(-1109 -213)">
    <circle id="Ellipse_6" data-name="Ellipse 6" cx="77" cy="77" r="77" transform="translate(1389 415)" fill="#88ff80"/>
    <circle id="Ellipse_39" data-name="Ellipse 39" cx="77" cy="77" r="77" transform="translate(1389 877)" fill="#88ff80"/>
    <circle id="Ellipse_28" data-name="Ellipse 28" cx="77" cy="77" r="77" transform="translate(1501 656)" fill="#fff"/>
    <circle id="Ellipse_35" data-name="Ellipse 35" cx="77" cy="77" r="77" transform="translate(1538 213)" fill="#fff"/>
    <path id="Path_1" data-name="Path 1" d="M77,0A77,77,0,1,1,0,77,77,77,0,0,1,77,0Z" transform="translate(1378 415)" fill="#70f3cb"/>
    <path id="Path_2" data-name="Path 2" d="M77,0A77,77,0,1,1,0,77,77,77,0,0,1,77,0Z" transform="translate(1378 877)" fill="#70f3cb"/>
    <circle id="Ellipse_27" data-name="Ellipse 27" cx="77" cy="77" r="77" transform="translate(1495 656)" fill="#070707"/>
    <circle id="Ellipse_36" data-name="Ellipse 36" cx="77" cy="77" r="77" transform="translate(1532 213)" fill="#070707"/>
    <circle id="Ellipse_10" data-name="Ellipse 10" cx="63" cy="63" r="63" transform="translate(1223 429)" fill="rgba(169,229,217,0.32)"/>
    <circle id="Ellipse_40" data-name="Ellipse 40" cx="63" cy="63" r="63" transform="translate(1223 891)" fill="rgba(169,229,217,0.32)"/>
    <circle id="Ellipse_26" data-name="Ellipse 26" cx="63" cy="63" r="63" transform="translate(1340 670)" fill="rgba(4,4,4,0.55)"/>
    <circle id="Ellipse_37" data-name="Ellipse 37" cx="63" cy="63" r="63" transform="translate(1377 227)" fill="rgba(4,4,4,0.55)"/>
    <circle id="Ellipse_12" data-name="Ellipse 12" cx="42.5" cy="42.5" r="42.5" transform="translate(1109 450)" fill="rgba(169,229,217,0.32)"/>
    <circle id="Ellipse_41" data-name="Ellipse 41" cx="42.5" cy="42.5" r="42.5" transform="translate(1109 912)" fill="rgba(169,229,217,0.32)"/>
    <circle id="Ellipse_25" data-name="Ellipse 25" cx="42.5" cy="42.5" r="42.5" transform="translate(1226 691)" fill="rgba(7,7,7,0.28)"/>
    <circle id="Ellipse_38" data-name="Ellipse 38" cx="42.5" cy="42.5" r="42.5" transform="translate(1263 248)" fill="rgba(7,7,7,0.28)"/>
    <circle id="Ellipse_17" data-name="Ellipse 17" cx="42.5" cy="42.5" r="42.5" transform="translate(1436 889)" fill="#f3f9f2"/>
    <circle id="Ellipse_42" data-name="Ellipse 42" cx="42.5" cy="42.5" r="42.5" transform="translate(1436 429)" fill="#f3f9f2"/>
  </g>
</svg>
