<svg xmlns="http://www.w3.org/2000/svg" width="591" height="906" viewBox="0 0 591 906">
  <g id="hero-image" transform="translate(-1109 -213)">
    <circle id="Ellipse_6" data-name="Ellipse 6" cx="77" cy="77" r="77" transform="translate(1394 442)" fill="#88ff80"/>
    <circle id="Ellipse_39" data-name="Ellipse 39" cx="77" cy="77" r="77" transform="translate(1394 965)" fill="#88ff80"/>
    <circle id="Ellipse_28" data-name="Ellipse 28" cx="77" cy="77" r="77" transform="translate(1546 725)" fill="#fff"/>
    <circle id="Ellipse_35" data-name="Ellipse 35" cx="77" cy="77" r="77" transform="translate(1546 213)" fill="#fff"/>
    <path id="Path_1" data-name="Path 1" d="M77,0A77,77,0,1,1,0,77,77,77,0,0,1,77,0Z" transform="translate(1383.028 441.771)" fill="#70f3cb"/>
    <path id="Path_2" data-name="Path 2" d="M77,0A77,77,0,1,1,0,77,77,77,0,0,1,77,0Z" transform="translate(1383.028 965)" fill="#70f3cb"/>
    <circle id="Ellipse_27" data-name="Ellipse 27" cx="77" cy="77" r="77" transform="translate(1540 725)" fill="#070707"/>
    <circle id="Ellipse_36" data-name="Ellipse 36" cx="77" cy="77" r="77" transform="translate(1540 213)" fill="#070707"/>
    <circle id="Ellipse_10" data-name="Ellipse 10" cx="63" cy="63" r="63" transform="translate(1225 456)" fill="rgba(169,229,217,0.32)"/>
    <circle id="Ellipse_40" data-name="Ellipse 40" cx="63" cy="63" r="63" transform="translate(1225 979)" fill="rgba(169,229,217,0.32)"/>
    <circle id="Ellipse_26" data-name="Ellipse 26" cx="63" cy="63" r="63" transform="translate(1382 738)" fill="rgba(4,4,4,0.55)"/>
    <circle id="Ellipse_37" data-name="Ellipse 37" cx="63" cy="63" r="63" transform="translate(1382 227)" fill="rgba(4,4,4,0.55)"/>
    <circle id="Ellipse_12" data-name="Ellipse 12" cx="42.5" cy="42.5" r="42.5" transform="translate(1109 478)" fill="rgba(169,229,217,0.32)"/>
    <circle id="Ellipse_41" data-name="Ellipse 41" cx="42.5" cy="42.5" r="42.5" transform="translate(1109 1000)" fill="rgba(169,229,217,0.32)"/>
    <circle id="Ellipse_25" data-name="Ellipse 25" cx="42.5" cy="42.5" r="42.5" transform="translate(1265 758)" fill="rgba(7,7,7,0.28)"/>
    <circle id="Ellipse_38" data-name="Ellipse 38" cx="42.5" cy="42.5" r="42.5" transform="translate(1265 248)" fill="rgba(7,7,7,0.28)"/>
    <circle id="Ellipse_17" data-name="Ellipse 17" cx="42.5" cy="42.5" r="42.5" transform="translate(1441 977)" fill="#f3f9f2"/>
    <circle id="Ellipse_42" data-name="Ellipse 42" cx="42.5" cy="42.5" r="42.5" transform="translate(1441 455)" fill="#f3f9f2"/>
  </g>
</svg>
